<svg width="56" height="56" viewBox="0 0 56 56" fill="none" xmlns="http://www.w3.org/2000/svg">
<mask id="path-1-inside-1_12_410" fill="white">
<path fill-rule="evenodd" clip-rule="evenodd" d="M52.6874 23.0437L29.6177 54.775C28.819 55.8735 27.181 55.8735 26.3823 54.775L0.864263 19.6761C0.460534 19.1208 0.393028 18.4716 0.571661 17.9053C0.199488 16.6658 0 15.3554 0 14C0 6.26801 6.49187 0 14.5 0C21.1856 0 26.8144 4.36865 28.4912 10.3106C30.1102 4.36865 35.5449 0 42 0C49.732 0 56 6.26801 56 14C56 15.3674 55.804 16.6891 55.4384 17.9383C55.6042 18.4967 55.5316 19.1315 55.1357 19.6761L53.9119 21.3595C53.5452 21.9517 53.1356 22.5145 52.6874 23.0437Z"/>
</mask>
<path d="M52.6874 23.0437L51.1613 21.751L51.1134 21.8076L51.0697 21.8676L52.6874 23.0437ZM29.6177 54.775L28 53.5989L28 53.5989L29.6177 54.775ZM26.3823 54.775L24.7647 55.9511L24.7647 55.9511L26.3823 54.775ZM0.864263 19.6761L-0.753393 20.8522L-0.753393 20.8522L0.864263 19.6761ZM0.571661 17.9053L2.479 18.507L2.66424 17.9199L2.48718 17.3302L0.571661 17.9053ZM28.4912 10.3106L26.5664 10.8538L28.525 17.7944L30.4209 10.8364L28.4912 10.3106ZM55.4384 17.9383L53.5189 17.3767L53.3534 17.9425L53.5212 18.5076L55.4384 17.9383ZM55.1357 19.6761L56.7534 20.8522L56.7534 20.8522L55.1357 19.6761ZM53.9119 21.3595L52.2942 20.1834L52.2505 20.2435L52.2114 20.3066L53.9119 21.3595ZM51.0697 21.8676L28 53.5989L31.2353 55.9511L54.305 24.2198L51.0697 21.8676ZM28 53.5989L28 53.5989L24.7647 55.9511C26.3621 58.1482 29.638 58.1482 31.2353 55.9511L28 53.5989ZM28 53.5989L2.48192 18.5L-0.753393 20.8522L24.7647 55.9511L28 53.5989ZM2.48192 18.5C2.47822 18.4949 2.47624 18.4916 2.47539 18.49C2.47453 18.4885 2.47449 18.4882 2.47486 18.4891C2.47578 18.4914 2.47706 18.4955 2.47779 18.5004C2.47927 18.5104 2.47721 18.5127 2.479 18.507L-1.33568 17.3036C-1.6926 18.435 -1.55408 19.7509 -0.753393 20.8522L2.48192 18.5ZM2.48718 17.3302C2.17029 16.2748 2 15.1581 2 14H-2C-2 15.5527 -1.77132 17.0568 -1.34386 18.4805L2.48718 17.3302ZM2 14C2 7.43815 7.52971 2 14.5 2V-2C5.45403 -2 -2 5.09787 -2 14H2ZM14.5 2C20.3088 2 25.1378 5.79132 26.5664 10.8538L30.4161 9.76744C28.491 2.94599 22.0624 -2 14.5 -2V2ZM30.4209 10.8364C31.8088 5.74248 36.4699 2 42 2V-2C34.62 -2 28.4117 2.99483 26.5616 9.78486L30.4209 10.8364ZM42 2C48.6274 2 54 7.37258 54 14H58C58 5.16344 50.8366 -2 42 -2V2ZM54 14C54 15.1754 53.8316 16.308 53.5189 17.3767L57.358 18.4999C57.7763 17.0701 58 15.5595 58 14H54ZM53.5212 18.5076C53.5227 18.5127 53.5207 18.5098 53.5223 18.4999C53.5231 18.495 53.5243 18.4911 53.5252 18.489C53.5255 18.4882 53.5254 18.4886 53.5246 18.4901C53.5237 18.4917 53.5217 18.495 53.5181 18.5L56.7534 20.8522C57.538 19.773 57.6874 18.4862 57.3557 17.369L53.5212 18.5076ZM53.5181 18.5L52.2942 20.1834L55.5295 22.5355L56.7534 20.8522L53.5181 18.5ZM52.2114 20.3066C51.8971 20.8143 51.5458 21.297 51.1613 21.751L54.2135 24.3363C54.7254 23.7321 55.1933 23.0891 55.6123 22.4123L52.2114 20.3066Z" fill="black" mask="url(#path-1-inside-1_12_410)"/>
</svg>
